<?xml version="1.0" standalone="no"?>
<!DOCTYPE svg PUBLIC "-//W3C//DTD SVG 20010904//EN"
 "http://www.w3.org/TR/2001/REC-SVG-20010904/DTD/svg10.dtd">
<svg version="1.0" xmlns="http://www.w3.org/2000/svg"
 width="211.000000pt" height="255.000000pt" viewBox="0 0 211.000000 255.000000"
 preserveAspectRatio="xMidYMid meet">

<g transform="translate(0.000000,255.000000) scale(0.100000,-0.100000)"
fill="#fff" stroke="none">
<path d="M544 2472 c-6 -4 -44 -52 -84 -107 -41 -55 -104 -141 -142 -192 -66
-89 -68 -94 -67 -150 1 -135 15 -205 54 -273 21 -36 59 -102 84 -147 39 -71
55 -88 104 -119 31 -19 57 -37 57 -39 0 -2 -35 -3 -77 -2 -64 2 -78 -1 -77
-13 1 -8 10 -55 20 -104 17 -79 22 -91 54 -115 60 -46 89 -61 95 -51 3 6 10
10 14 10 5 0 0 -30 -11 -66 l-21 -66 47 -114 c35 -86 51 -142 62 -222 27 -185
30 -199 47 -223 34 -49 334 -374 344 -374 6 0 89 87 185 194 l175 194 12 81
c7 45 18 119 26 166 8 54 28 120 54 180 45 105 48 128 26 190 -18 52 -19 49 3
47 25 -2 130 74 135 98 11 46 37 181 37 189 0 5 -37 6 -82 3 -90 -6 -90 -6 -6
44 37 22 56 47 127 170 l83 144 16 132 15 132 -76 103 c-190 257 -231 308
-239 300 -4 -4 25 -110 67 -237 41 -126 75 -234 75 -239 0 -6 -25 -38 -54 -72
l-55 -61 -123 -12 c-68 -7 -172 -26 -233 -43 -60 -16 -123 -33 -140 -37 -21
-5 -63 2 -135 22 -154 42 -164 44 -296 57 l-121 13 -57 63 -57 64 76 232 c72
221 83 266 59 250z m-60 -149 c-9 -21 -21 -51 -26 -68 -6 -16 -15 -35 -19 -41
-5 -5 -6 -19 -3 -30 3 -10 -9 -59 -26 -108 -33 -99 -36 -88 37 -168 46 -51 52
-78 28 -124 -8 -16 -15 -40 -14 -54 0 -17 7 -6 23 35 13 33 21 64 18 69 -3 5
11 6 33 3 21 -3 83 -11 139 -18 122 -13 153 -26 186 -76 14 -21 55 -73 92
-115 37 -43 70 -89 74 -103 3 -14 11 -25 18 -25 6 0 25 -28 41 -62 17 -34 45
-86 63 -116 17 -30 32 -59 32 -64 0 -5 -13 -37 -28 -71 -16 -34 -44 -99 -63
-144 -19 -46 -40 -83 -46 -83 -7 0 -13 6 -13 13 0 17 -93 231 -102 235 -14 7
-8 61 10 94 54 97 94 179 90 184 -6 6 -45 -61 -89 -153 -17 -35 -32 -63 -35
-63 -3 0 -24 16 -47 35 -22 19 -47 35 -54 35 -7 0 -13 4 -13 10 0 5 -6 7 -14
4 -14 -6 -86 35 -86 49 0 14 27 7 53 -13 34 -27 47 -26 18 1 -21 19 -22 27
-16 78 4 31 9 60 12 65 5 8 51 5 181 -10 32 -4 52 -3 52 3 0 6 -48 14 -110 18
-73 4 -110 11 -110 18 0 7 7 53 15 102 17 102 18 121 8 111 -4 -4 -11 -32 -15
-64 -13 -88 -15 -95 -27 -125 -10 -27 -12 -27 -33 -13 -12 9 -28 16 -35 16 -7
0 -46 15 -86 34 -80 37 -117 50 -117 42 0 -7 87 -48 179 -83 l75 -29 1 -43 c1
-23 -3 -44 -7 -47 -4 -3 -8 -15 -8 -26 0 -37 -78 -17 -176 44 l-84 53 0 80 c0
51 -5 88 -14 100 -20 30 -86 236 -86 270 0 17 9 48 19 70 10 22 21 53 25 70 4
16 12 33 18 36 6 4 8 13 5 20 -3 8 -12 -2 -21 -26 -9 -22 -21 -49 -26 -60 -5
-11 -11 -29 -15 -40 -3 -11 -12 -29 -20 -39 -14 -18 -15 -18 -34 5 -11 13 -20
20 -21 15 0 -6 10 -20 22 -33 20 -22 51 -97 85 -208 8 -27 20 -56 25 -63 6 -7
8 -15 5 -18 -8 -8 -125 95 -131 115 -8 30 -17 116 -18 177 l-1 61 104 146 c57
81 107 146 112 147 4 0 0 -17 -9 -37z m1157 -10 c18 -27 64 -90 102 -141 79
-105 80 -108 65 -256 -8 -80 -14 -103 -30 -116 -11 -9 -21 -25 -22 -36 -1 -10
-22 -55 -46 -99 l-45 -80 -3 44 c-3 40 0 48 39 87 42 43 46 63 5 25 -27 -25
-56 -30 -66 -11 -21 42 -40 93 -40 108 1 9 27 46 58 81 l58 64 -28 79 c-47
134 -35 139 21 8 31 -72 28 -119 -14 -231 -19 -50 -35 -96 -35 -102 0 -19 28
28 36 59 4 16 10 34 14 39 4 6 17 42 29 80 12 39 30 79 41 88 11 9 20 22 20
29 0 7 -9 2 -20 -12 -16 -22 -33 -22 -36 -2 -4 33 -75 172 -85 166 -5 -3 -9 7
-9 21 0 14 -11 51 -25 81 -40 88 -33 99 16 27z m-47 -505 c3 -17 16 -51 28
-75 22 -45 22 -45 3 -60 -16 -13 -17 -15 -2 -10 15 6 17 -1 17 -57 l0 -63 -87
-56 c-61 -40 -100 -59 -133 -63 l-46 -6 -13 42 c-7 23 -9 45 -6 48 4 4 22 -11
41 -33 18 -22 34 -35 34 -29 0 5 -16 27 -35 48 -19 21 -35 42 -35 47 0 5 17
17 38 28 53 28 21 25 -68 -7 -22 -8 -37 -10 -133 -18 -48 -4 -90 -12 -94 -17
-4 -7 16 -7 58 -2 35 4 89 8 119 9 l55 1 9 -59 c7 -42 6 -63 -2 -77 -14 -22 0
-26 18 -4 13 15 50 21 50 8 0 -10 -75 -53 -90 -53 -6 0 -8 6 -4 13 8 13 -9 0
-75 -57 -24 -21 -47 -34 -51 -29 -5 4 -31 53 -60 108 -29 55 -56 104 -61 110
-17 17 -9 35 44 97 29 35 74 91 100 125 27 35 58 68 70 75 12 7 76 20 142 29
172 23 162 24 169 -13z m-579 -64 c33 -6 159 18 197 37 32 17 27 -7 -5 -26
-18 -9 -57 -37 -89 -61 -31 -24 -63 -44 -71 -44 -8 0 -43 22 -78 50 -35 27
-69 50 -75 50 -14 0 -36 25 -29 32 3 3 30 -3 61 -13 30 -10 70 -21 89 -25z
m-621 -26 c46 -42 47 -44 44 -93 l-3 -50 -38 68 c-20 37 -44 79 -53 92 -24 37
-4 30 50 -17z m538 -5 c18 -16 38 -31 43 -35 6 -4 24 -19 41 -33 l32 -25 53
43 c30 23 63 50 73 59 26 24 42 23 25 -1 -30 -43 -144 -180 -150 -181 -3 0
-30 30 -60 67 -30 37 -66 80 -81 95 -47 46 -29 54 24 11z m-368 -299 c25 -4
46 -11 46 -17 0 -5 -16 -32 -37 -59 -34 -47 -37 -49 -47 -30 -6 11 -26 36 -43
56 -18 19 -33 40 -33 46 0 11 46 13 114 4z m1086 1 c0 -4 -37 -51 -95 -123 -1
-1 -19 23 -39 53 -37 56 -37 58 9 68 29 7 125 8 125 2z m-955 -51 c30 -19 31
-28 8 -58 l-18 -23 -12 36 c-14 38 -16 61 -8 61 3 0 17 -7 30 -16z m730 -21
c-9 -52 -19 -59 -40 -27 -10 16 -14 29 -8 31 6 2 19 10 29 18 27 20 27 19 19
-22z m-945 -17 c16 -25 30 -49 30 -55 0 -6 10 -11 23 -11 17 0 31 14 56 55 18
30 37 55 41 55 8 0 19 -43 50 -200 11 -58 28 -125 36 -150 9 -25 27 -92 41
-150 14 -58 31 -127 39 -154 8 -27 17 -68 20 -90 13 -90 27 -112 108 -177 58
-46 80 -59 86 -49 4 7 8 58 7 114 l0 101 31 3 32 3 0 -110 c0 -60 4 -112 9
-115 10 -7 175 123 167 131 -3 3 2 19 10 35 8 16 12 33 9 37 -8 13 15 112 31
139 8 12 13 26 10 30 -2 4 7 52 21 107 14 55 28 111 31 125 l6 25 6 -25 c4
-17 9 3 14 58 4 46 14 104 21 130 8 26 19 75 26 110 6 34 15 65 19 67 4 3 24
-20 44 -50 28 -43 42 -55 62 -55 14 0 23 4 19 10 -6 10 64 104 72 97 2 -2 -2
-27 -9 -56 -9 -39 -16 -51 -30 -51 -12 0 -16 -4 -12 -11 8 -13 -44 -58 -66
-58 -8 0 -28 20 -44 45 -16 25 -32 42 -36 37 -5 -4 -12 -102 -15 -218 -5 -127
-13 -225 -20 -249 -8 -21 -12 -43 -9 -50 2 -6 -3 -47 -11 -91 -9 -44 -19 -97
-22 -117 l-5 -38 -54 5 c-32 2 -52 0 -49 -6 4 -5 24 -9 46 -9 21 0 39 -4 39
-8 0 -9 -298 -345 -310 -350 -7 -3 -312 331 -318 349 -2 5 17 9 42 9 24 0 47
4 51 9 3 6 -18 8 -55 5 l-60 -6 0 41 c0 22 -4 42 -9 45 -5 4 -12 45 -16 94 -4
48 -14 104 -21 126 -8 23 -14 84 -15 150 -1 88 -3 103 -10 71 -4 -22 -6 -56
-3 -76 9 -61 -10 -51 -35 18 -23 64 -23 65 -6 130 10 35 24 67 31 70 16 6 20
88 5 97 -5 4 -22 -14 -38 -39 -15 -25 -31 -45 -35 -45 -19 0 -79 44 -74 55 2
7 -3 15 -13 18 -11 3 -20 17 -24 38 -3 19 -8 42 -12 52 -14 33 14 17 45 -27z
m355 -48 c5 -4 -21 -8 -59 -8 -70 0 -72 2 -38 42 14 17 17 17 51 -4 20 -12 40
-25 46 -30z m531 25 c22 -29 17 -33 -46 -33 -33 0 -60 4 -60 8 0 9 57 39 79
41 8 0 20 -7 27 -16z m-466 -79 c19 -20 130 -266 130 -289 0 -7 -41 -37 -91
-66 -50 -29 -86 -55 -80 -57 5 -2 35 13 66 32 30 20 59 36 64 36 5 0 14 7 21
15 7 8 21 15 31 15 25 0 198 -102 199 -117 0 -7 9 -13 20 -13 23 0 27 -28 9
-61 -5 -11 -15 -48 -20 -82 -14 -86 -32 -117 -91 -161 l-51 -39 5 105 c5 97 8
110 40 164 18 31 38 59 43 61 6 1 18 -11 28 -28 26 -46 32 -29 6 20 -22 43
-53 55 -63 24 -3 -10 -18 -26 -33 -36 -16 -9 -42 -26 -60 -38 l-32 -20 -56 42
c-30 23 -55 48 -55 55 0 8 -10 14 -22 14 -17 0 -29 -12 -45 -45 -12 -25 -18
-45 -14 -45 5 0 14 14 21 30 13 32 34 39 44 15 3 -8 13 -15 23 -15 10 0 38
-16 62 -35 24 -19 46 -35 49 -35 3 0 25 16 49 36 44 36 71 40 40 6 -10 -10
-17 -22 -17 -27 0 -25 -31 -40 -78 -37 -40 3 -52 8 -62 28 -23 42 -29 26 -9
-26 18 -48 28 -210 13 -210 -3 0 -24 16 -47 35 -22 19 -44 35 -49 35 -16 0 -8
29 10 34 18 6 82 66 70 66 -3 0 -25 -16 -49 -35 -23 -20 -46 -32 -50 -28 -4 4
-13 37 -20 73 -6 36 -18 79 -25 97 -20 44 -18 63 6 63 11 0 20 5 20 10 0 6 -9
10 -20 10 -22 0 -25 16 -9 57 6 15 17 59 25 98 8 38 22 102 30 140 25 115 27
130 18 122 -8 -8 -50 -183 -77 -319 -6 -32 -14 -58 -18 -58 -4 0 -12 19 -17
43 -10 45 -66 270 -81 324 -5 18 -7 33 -6 35 2 2 45 2 95 2 76 -1 95 -5 110
-20z m497 12 c1 -1 -17 -80 -41 -176 -24 -96 -46 -186 -48 -200 -2 -14 -9 -24
-16 -22 -6 1 -12 -7 -12 -18 0 -26 -14 -25 -53 4 -18 13 -54 35 -82 50 -93 50
-91 45 -61 118 37 92 93 218 99 224 3 3 9 -15 12 -40 4 -26 11 -49 16 -52 5
-3 9 -16 9 -28 0 -13 6 -46 14 -72 8 -27 21 -78 30 -114 11 -46 14 -54 12 -25
-5 60 -35 207 -46 227 -6 10 -10 27 -10 37 0 11 -5 31 -11 45 -22 47 -10 53
92 48 52 -2 95 -5 96 -6z m99 -122 l18 -76 -24 -69 c-41 -118 -49 -89 -28 107
6 63 13 114 14 114 1 0 10 -34 20 -76z"/>
<path d="M685 1480 c-16 -16 -26 -32 -24 -35 3 -3 18 9 34 25 16 16 26 32 24
35 -3 3 -18 -9 -34 -25z"/>
<path d="M1293 1755 c26 -136 33 -165 41 -172 5 -4 6 5 3 22 -4 17 -11 59 -17
95 -7 36 -16 70 -22 75 -7 7 -9 0 -5 -20z"/>
<path d="M1515 1631 c-44 -22 -74 -40 -68 -40 19 -1 153 60 153 70 0 12 6 14
-85 -30z"/>
<path d="M632 1140 c0 -19 2 -27 5 -17 2 9 2 25 0 35 -3 9 -5 1 -5 -18z"/>
<path d="M1368 915 c-4 -33 -10 -86 -14 -117 -4 -32 -10 -58 -14 -58 -8 0 25
-138 35 -148 8 -9 6 51 -4 85 -8 27 -6 37 12 60 12 16 15 23 5 15 -23 -19 -27
-5 -16 63 5 32 8 82 6 110 l-3 50 -7 -60z"/>
<path d="M715 777 l0 -179 17 59 c10 32 22 66 28 75 7 13 6 16 -4 12 -10 -4
-15 11 -20 58 -16 155 -22 148 -21 -25z"/>
<path d="M750 693 c0 -5 14 -28 30 -53 37 -55 39 -48 4 14 -25 44 -34 55 -34
39z"/>
<path d="M1302 642 c-12 -19 -21 -36 -18 -39 6 -6 48 56 44 66 -2 4 -13 -7
-26 -27z"/>
<path d="M1033 813 c9 -2 23 -2 30 0 6 3 -1 5 -18 5 -16 0 -22 -2 -12 -5z"/>
<path d="M967 799 c8 -8 16 -8 30 0 16 9 14 10 -11 11 -22 0 -27 -3 -19 -11z"/>
<path d="M1090 806 c0 -10 28 -13 41 -5 10 6 7 9 -13 9 -16 0 -28 -2 -28 -4z"/>
<path d="M1195 660 c-28 -7 -28 -8 -5 -9 14 0 32 4 40 9 17 11 8 11 -35 0z"/>
<path d="M893 653 c9 -2 23 -2 30 0 6 3 -1 5 -18 5 -16 0 -22 -2 -12 -5z"/>
<path d="M1140 590 c0 -5 5 -10 10 -10 6 0 10 5 10 10 0 6 -4 10 -10 10 -5 0
-10 -4 -10 -10z"/>
<path d="M1170 576 c0 -11 30 -39 36 -34 2 3 -5 13 -16 23 -11 10 -20 15 -20
11z"/>
</g>
</svg>
