<?xml version="1.0" standalone="no"?>
<!DOCTYPE svg PUBLIC "-//W3C//DTD SVG 20010904//EN"
 "http://www.w3.org/TR/2001/REC-SVG-20010904/DTD/svg10.dtd">
<svg version="1.0" xmlns="http://www.w3.org/2000/svg"
 width="50.000000pt" height="70.000000pt" viewBox="0 0 157.000000 196.000000"
 preserveAspectRatio="xMidYMid meet">

<g transform="translate(0.000000,196.000000) scale(0.100000,-0.100000)"
fill="#fff" stroke="none">
<path d="M1155 1878 c4 -13 31 -101 62 -196 l55 -172 -38 -44 c-37 -41 -43
-44 -119 -55 -44 -7 -126 -23 -181 -37 -118 -28 -168 -30 -244 -9 -30 8 -109
24 -175 36 -116 20 -121 22 -158 60 -36 37 -38 43 -32 82 4 23 23 89 42 147
60 186 63 200 49 200 -13 0 -185 -234 -220 -299 -26 -49 -17 -159 19 -238 32
-72 116 -213 127 -213 4 0 12 -10 19 -21 6 -13 7 -19 1 -15 -6 3 -22 1 -37 -6
-25 -11 -25 -14 -19 -72 9 -79 24 -108 79 -147 44 -32 45 -33 45 -88 0 -31 11
-89 24 -131 13 -41 34 -131 47 -200 l23 -125 124 -145 c69 -80 129 -147 134
-149 5 -2 21 7 35 20 46 42 224 253 241 284 8 17 19 71 22 120 6 70 17 115 49
199 22 60 41 117 41 125 -1 18 -50 -78 -50 -96 0 -7 -5 -13 -11 -13 -6 0 -8 8
-5 18 2 9 8 49 12 87 l7 70 14 -35 13 -35 -3 33 c-2 17 0 32 4 32 4 0 30 18
58 40 43 35 51 45 51 75 0 18 5 46 11 62 7 20 7 29 -1 31 -7 3 -8 8 0 16 7 10
0 16 -32 25 -45 14 -44 17 8 49 6 4 40 56 75 117 l64 110 3 102 4 102 -53 78
c-112 164 -155 221 -172 233 -17 10 -18 9 -12 -12z m105 -143 c19 -27 49 -72
67 -99 38 -56 42 -90 12 -106 -11 -7 -18 -14 -15 -17 3 -3 12 0 21 7 13 11 15
4 15 -57 0 -77 -8 -94 -70 -143 l-39 -31 -26 51 -26 51 29 37 c39 49 71 77 78
69 4 -4 -7 -46 -24 -94 -17 -48 -25 -80 -17 -70 7 10 23 49 35 87 21 65 21 71
6 94 -16 25 -43 107 -67 199 -6 26 -16 50 -20 53 -5 3 -9 13 -9 22 0 19 6 13
50 -53z m-923 -37 c-14 -35 -29 -91 -33 -126 -3 -34 -9 -61 -13 -60 -3 2 -23
10 -43 18 -21 8 -38 19 -38 25 2 27 142 230 148 214 2 -5 -8 -37 -21 -71z
m-99 -181 c10 -12 82 -207 82 -222 0 -3 -6 -3 -12 0 -7 4 -3 -2 10 -13 14 -13
22 -32 22 -51 0 -47 -17 -37 -47 27 -15 31 -39 84 -55 116 -39 83 -39 190 0
143z m127 -142 l-6 -40 20 31 c19 31 19 31 78 22 140 -21 162 -28 185 -61 12
-18 47 -61 77 -97 l55 -65 -89 -3 c-48 -2 -94 -1 -101 2 -9 3 -9 18 2 63 8 32
13 69 13 83 -1 14 -7 -4 -15 -40 -8 -36 -16 -70 -19 -77 -3 -8 -35 1 -105 30
l-102 41 -28 62 c-36 77 -60 143 -60 169 0 15 11 9 51 -30 48 -47 50 -52 44
-90z m841 -22 c8 -21 19 -46 25 -56 10 -19 4 -37 -13 -37 -6 0 -51 -18 -101
-40 -49 -22 -91 -39 -92 -38 -8 9 -46 161 -42 171 4 13 100 34 165 36 41 1 44
-1 58 -36z m-295 -42 c-26 -27 -59 -71 -76 -100 -16 -28 -33 -51 -36 -51 -7 0
-108 122 -133 161 l-19 30 29 -8 c16 -4 68 -8 117 -8 73 0 86 -2 82 -15 -4 -9
3 -7 17 6 20 19 41 31 59 33 3 1 -15 -21 -40 -48z m73 -38 c10 -38 20 -75 22
-84 3 -11 -4 -19 -18 -23 -33 -8 -168 -7 -168 2 0 11 129 172 138 172 4 0 16
-30 26 -67z m314 -6 c-18 -31 -36 -57 -40 -57 -11 0 -10 28 2 35 5 3 7 12 4
19 -5 12 55 70 64 62 1 -2 -12 -29 -30 -59z m-64 -94 c-8 -13 -42 -41 -77 -63
l-62 -40 -23 28 -23 27 7 -27 c5 -23 2 -29 -20 -39 -29 -13 -37 -35 -8 -24 45
18 48 19 35 5 -7 -8 -26 -15 -42 -16 -17 -1 -50 -17 -75 -35 -25 -18 -48 -30
-50 -28 -2 2 -24 43 -50 90 -53 102 -56 99 81 99 l82 0 4 -47 3 -48 2 57 2 56
108 46 107 45 7 -32 c4 -21 2 -40 -8 -54z m-789 44 c91 -37 105 -45 105 -57 0
-15 -61 -80 -74 -80 -17 0 -122 76 -128 92 -7 16 2 78 11 78 3 0 42 -15 86
-33z m335 -76 c0 -5 -90 -182 -96 -190 -1 -2 -25 16 -52 38 -27 23 -53 41 -58
40 -25 -4 -36 1 -26 14 5 6 13 34 16 60 l7 48 105 -2 c57 -2 104 -5 104 -8z
m-226 -33 c-3 -18 -7 -39 -9 -45 -5 -14 -35 -6 -35 8 0 9 41 69 47 69 1 0 0
-15 -3 -32z m284 -67 c23 -43 42 -87 42 -98 0 -10 5 -24 11 -30 11 -11 79
-333 70 -333 -12 0 -151 96 -155 107 -3 7 9 43 25 80 39 86 61 145 50 139 -4
-3 -25 -48 -46 -100 -21 -53 -39 -95 -40 -93 -15 19 -105 200 -105 209 0 16
91 198 99 198 3 0 25 -35 49 -79z m-435 45 c16 -12 14 -14 -23 -18 -47 -4 -63
8 -28 21 30 13 30 13 51 -3z m822 0 c18 -13 18 -15 -9 -60 -31 -52 -48 -57
-73 -20 -16 25 -16 27 2 40 10 8 24 14 31 14 6 0 18 7 25 16 11 13 3 12 -30
-5 -23 -12 -45 -20 -48 -17 -4 4 64 44 78 46 3 0 14 -6 24 -14z m-777 -38 c7
-10 4 -21 -13 -40 -13 -16 -27 -28 -30 -28 -10 0 -54 54 -55 68 0 16 84 16 98
0z m-74 -74 l35 -45 14 28 c8 15 24 36 36 47 20 18 20 18 26 -7 6 -21 -1 -35
-31 -72 l-38 -45 -38 37 c-32 32 -63 103 -45 103 3 0 22 -21 41 -46z m166 36
c13 -8 13 -11 -1 -25 -14 -14 -16 -13 -27 10 -13 27 -1 34 28 15z m583 -15
c15 -13 27 -29 27 -35 0 -5 8 -10 18 -10 10 0 23 -5 29 -11 7 -7 9 -4 6 13 -3
15 3 30 16 42 21 19 21 19 21 -11 0 -20 -9 -38 -29 -55 -16 -15 -31 -32 -33
-40 -4 -11 -8 -11 -22 1 -11 9 -14 21 -10 35 6 18 5 19 -8 9 -12 -10 -19 -8
-38 12 -14 14 -21 32 -18 43 4 15 1 18 -13 15 -11 -3 -19 -10 -19 -15 0 -5 -4
-6 -10 -3 -15 10 -12 23 8 28 34 9 47 6 75 -18z m-520 -22 l32 -16 -34 -9
c-46 -13 -65 -4 -51 22 13 24 13 24 53 3z m427 2 c16 -19 6 -33 -22 -30 -13 1
-29 3 -35 4 -20 2 -15 17 10 29 30 14 33 14 47 -3z m-509 -117 c5 -46 20 -119
33 -163 13 -44 21 -84 18 -90 -7 -11 -8 -17 -10 -53 -1 -13 -6 -20 -12 -17 -7
4 -9 -2 -6 -17 3 -12 0 -36 -8 -53 l-13 -30 -7 51 c-4 27 -6 54 -5 60 1 5 -5
35 -15 67 -13 43 -15 62 -7 70 6 6 11 18 10 27 0 8 -4 5 -10 -9 -14 -36 -28
-15 -35 56 -6 54 -3 70 22 127 15 36 30 63 32 61 3 -2 8 -41 13 -87z m167 25
c16 -27 45 -80 66 -120 l36 -72 -71 -48 c-38 -26 -79 -54 -89 -61 -17 -12 -19
-11 -18 10 1 12 11 64 23 113 25 100 39 182 30 174 -3 -4 -13 -43 -21 -89 -9
-45 -23 -100 -33 -122 l-17 -41 -27 119 c-15 65 -27 131 -27 146 0 24 4 27 43
31 23 2 49 4 58 5 10 1 29 -17 47 -45z m309 37 c52 0 55 -1 51 -22 -25 -118
-61 -276 -65 -288 -7 -17 -12 4 -43 165 -12 61 -24 121 -27 134 -5 20 -3 23
11 18 10 -4 43 -7 73 -7z m100 -22 c15 -26 -7 -299 -26 -322 -5 -6 -12 -34
-15 -61 -10 -86 -27 -157 -45 -186 -24 -39 -212 -259 -221 -259 -5 0 -23 19
-42 42 -18 22 -66 77 -105 122 -40 44 -73 86 -73 93 0 14 31 33 55 33 9 0 26
-9 38 -21 58 -55 96 -79 103 -67 4 6 2 14 -4 16 -7 2 -12 16 -11 30 0 25 1 25
10 7 7 -15 8 -9 5 23 -6 60 2 82 30 82 23 0 24 -2 24 -85 0 -47 2 -85 4 -85 2
0 20 15 38 33 19 17 48 43 63 57 15 14 36 44 46 67 10 23 27 51 37 61 18 18
19 23 6 47 -19 37 -18 68 7 150 11 39 23 84 25 100 22 130 31 154 51 123z
m-214 -284 c80 -52 85 -57 77 -82 -18 -60 -20 -62 -66 -62 -24 0 -44 3 -44 8
0 13 40 72 49 72 5 0 16 -10 24 -22 11 -17 16 -19 16 -8 1 9 -13 31 -30 49
l-30 34 -85 -6 c-46 -2 -91 -10 -99 -17 -8 -7 -22 -9 -32 -6 -13 5 -2 17 48
51 35 24 69 44 75 44 7 1 50 -24 97 -55z m7 -40 c3 -3 -5 -14 -17 -24 -12 -9
-20 -20 -17 -22 3 -3 -1 -17 -7 -32 -14 -31 -35 -29 -32 3 2 18 0 19 -16 9
-15 -9 -26 -6 -65 22 -25 18 -46 35 -46 36 0 18 183 25 200 8z m-272 -161 c16
-29 17 -28 -25 -53 -29 -17 -38 -18 -44 -8 -14 22 -10 85 9 135 36 93 36 93
42 18 3 -38 11 -80 18 -92z m90 120 c31 -21 59 -39 62 -41 12 -9 -30 -22 -75
-23 l-50 -2 47 -6 c59 -8 65 -14 34 -34 -46 -30 -71 -31 -84 -2 -15 33 -15 70
0 98 10 20 10 21 -5 8 -15 -12 -17 -11 -17 7 0 17 7 25 28 31 1 1 28 -16 60
-36z m282 -61 c-16 -34 -25 -14 -15 36 7 35 8 36 18 14 7 -16 7 -30 -3 -50z
m-181 -6 c9 -11 6 -15 -19 -18 -19 -3 -30 0 -30 7 0 27 30 34 49 11z m131 -28
c0 -13 -4 -29 -9 -37 -8 -12 -13 -12 -35 2 -31 21 -42 22 -26 2 7 -8 19 -15
26 -15 20 0 17 -21 -8 -47 -38 -40 -50 -31 -47 40 2 34 4 65 6 70 2 4 24 7 49
7 39 0 44 -3 44 -22z m-193 -69 c-4 -29 -9 -54 -12 -57 -6 -6 -75 57 -75 69 0
6 66 36 84 38 5 1 6 -22 3 -50z m309 -6 c-11 -11 -17 4 -9 23 7 18 8 18 11 1
2 -10 1 -21 -2 -24z"/>
<path d="M1305 1550 c-3 -5 -1 -10 4 -10 6 0 11 5 11 10 0 6 -2 10 -4 10 -3 0
-8 -4 -11 -10z"/>
<path d="M695 1309 c14 -22 89 -69 109 -68 16 1 13 3 -9 10 -16 4 -45 22 -63
39 -34 31 -48 38 -37 19z"/>
<path d="M1032 633 c-1 -34 -5 -70 -8 -80 -5 -14 -4 -15 5 -7 8 7 11 35 8 80
l-3 69 -2 -62z"/>
<path d="M970 356 c0 -2 7 -7 16 -10 8 -3 12 -2 9 4 -6 10 -25 14 -25 6z"/>
</g>
</svg>
